<svg width="148" height="148" viewBox="0 0 148 148" fill="none" xmlns="http://www.w3.org/2000/svg">
<path d="M73.934 145.868C113.662 145.868 145.868 113.662 145.868 73.934C145.868 34.2059 113.662 2 73.934 2C34.2059 2 2 34.2059 2 73.934C2 113.662 34.2059 145.868 73.934 145.868Z" fill="#FFED00" stroke="black" stroke-width="3" stroke-miterlimit="10"/>
<path d="M113.168 75.5784C113.494 80.1856 112.878 84.8508 111.755 89.3856C110.56 93.906 108.742 98.3321 106.134 102.338C104.837 104.337 103.374 106.25 101.715 107.996C100.042 109.72 98.2452 111.335 96.2965 112.77C92.3919 115.609 87.9585 117.674 83.3802 119.072C78.7875 120.405 73.9412 121.093 69.1239 120.847C66.7116 120.709 64.321 120.34 61.9812 119.804C59.6413 119.239 57.3667 118.449 55.1934 117.478C50.8252 115.544 46.8845 112.835 43.4145 109.691C39.9953 106.496 36.9383 102.925 34.6926 98.8899C37.7207 102.353 41.1109 105.41 44.7692 108.025C46.5874 109.343 48.4854 110.538 50.4486 111.582C52.4117 112.617 54.4038 113.588 56.4829 114.313C58.5547 115.044 60.67 115.617 62.7998 116.058C64.944 116.442 67.11 116.681 69.276 116.703C71.442 116.696 73.6152 116.631 75.7667 116.269C77.9254 115.993 80.0407 115.457 82.1488 114.878C86.3358 113.617 90.3274 111.806 93.9349 109.387C95.7387 108.177 97.4193 106.8 99.0058 105.308C100.556 103.78 102.012 102.143 103.352 100.397C104.7 98.6581 105.837 96.7529 106.916 94.8115C107.988 92.8628 108.923 90.8272 109.727 88.7337C111.364 84.5466 112.531 80.1277 113.168 75.5784Z" fill="black"/>
<path d="M80.9316 60.3222C80.9896 58.7937 81.6126 57.3232 82.4674 56.012C83.3294 54.7008 84.4957 53.5635 85.8214 52.6435C88.509 50.8614 91.7761 50.0356 94.8765 50.0356C97.977 50.0211 101.244 50.8469 103.939 52.6362C105.265 53.549 106.431 54.6936 107.293 56.0047C108.141 57.3159 108.763 58.7865 108.821 60.3222C106.532 58.4025 104.229 57.3087 101.954 56.5987C99.6432 55.9468 97.3323 55.686 94.8838 55.6715C92.4353 55.6715 90.1172 55.9323 87.8135 56.5915C85.5172 57.3087 83.2208 58.4025 80.9316 60.3222Z" fill="black"/>
<path d="M62.9654 55.8601C63.783 43.9703 58.1657 33.8999 50.4188 33.3671C42.6718 32.8344 35.7289 42.0411 34.9113 53.931C34.0937 65.8208 39.711 75.8912 47.458 76.4239C55.2049 76.9566 62.1478 67.7499 62.9654 55.8601Z" fill="black"/>
</svg>
