<svg width="148" height="147" viewBox="0 0 148 147" fill="none" xmlns="http://www.w3.org/2000/svg">
<path d="M73.934 144.957C113.662 144.957 145.868 112.955 145.868 73.4787C145.868 34.0021 113.662 2 73.934 2C34.2059 2 2 34.0021 2 73.4787C2 112.955 34.2059 144.957 73.934 144.957Z" fill="#FFED00" stroke="black" stroke-width="3" stroke-miterlimit="10"/>
<path d="M127.997 73.6804C127.997 73.6804 112.987 126.541 73.905 126.541C34.823 126.541 19.8132 73.6804 19.8132 73.6804" stroke="black" stroke-width="3" stroke-miterlimit="10" stroke-linecap="round"/>
<path d="M34.3884 55.8069L54.7226 35.5942" stroke="black" stroke-width="3" stroke-miterlimit="10" stroke-linecap="round"/>
<path d="M54.7226 55.8069L34.3884 35.5942" stroke="black" stroke-width="3" stroke-miterlimit="10" stroke-linecap="round"/>
<path d="M92.2832 55.8069L112.617 35.5942" stroke="black" stroke-width="3" stroke-miterlimit="10" stroke-linecap="round"/>
<path d="M112.617 55.8069L92.2832 35.5942" stroke="black" stroke-width="3" stroke-miterlimit="10" stroke-linecap="round"/>
<path d="M63.3069 55.8069L83.6411 35.5942" stroke="black" stroke-width="3" stroke-miterlimit="10" stroke-linecap="round"/>
<path d="M83.6411 55.8069L63.3069 35.5942" stroke="black" stroke-width="3" stroke-miterlimit="10" stroke-linecap="round"/>
</svg>
