<svg width="148" height="148" viewBox="0 0 148 148" fill="none" xmlns="http://www.w3.org/2000/svg">
<path d="M82.2936 34.8955H98.6653V60.3513C98.6653 66.3349 93.819 71.1812 87.8354 71.1812H82.2864L82.2936 34.8955Z" fill="black"/>
<path d="M49.2026 34.8955H65.5742V60.3513C65.5742 66.3349 60.7279 71.1812 54.7443 71.1812H49.1953L49.2026 34.8955Z" fill="black"/>
<path d="M12.2646 76.3246C12.2646 76.3246 18.4873 78.6862 27.0426 74.6367" stroke="black" stroke-width="3" stroke-miterlimit="10" stroke-linecap="round"/>
<path d="M73.934 145.868C113.662 145.868 145.868 113.662 145.868 73.934C145.868 34.2059 113.662 2 73.934 2C34.2059 2 2 34.2059 2 73.934C2 113.662 34.2059 145.868 73.934 145.868Z" fill="#FFED00" stroke="black" stroke-width="3" stroke-miterlimit="10"/>
<path d="M135.603 76.3246C135.603 76.3246 129.38 78.6862 120.825 74.6367" stroke="black" stroke-width="3" stroke-miterlimit="10" stroke-linecap="round"/>
<path d="M127.997 76.8245C127.997 76.8245 112.987 129.685 73.905 129.685C34.823 129.685 19.8132 76.8245 19.8132 76.8245" stroke="black" stroke-width="3" stroke-miterlimit="10" stroke-linecap="round"/>
<path d="M48.1547 27L49.3917 39.0413C49.6018 41.0521 51.8191 42.1446 53.4918 41.0521L63.5126 34.5288L55.0323 43.0154C53.6163 44.4325 54.1609 46.8788 56.0437 47.5358L67.3016 51.4388L55.4913 49.9821C53.5152 49.7367 51.9825 51.7 52.6516 53.6079L56.6817 65L50.4342 54.7004C49.3917 52.9746 46.9254 52.9746 45.8829 54.7004L39.6277 65L43.65 53.6079C44.3191 51.7 42.7864 49.7446 40.8102 49.9821L29 51.4388L40.2578 47.5358C42.1406 46.8788 42.693 44.4404 41.2693 43.0154L32.7967 34.5288L42.8175 41.0521C44.4902 42.1446 46.7153 41.06 46.9176 39.0413L48.1547 27Z" fill="black"/>
<path d="M101.845 27L103.082 39.0413C103.292 41.0521 105.51 42.1446 107.183 41.0521L117.203 34.5288L108.723 43.0154C107.307 44.4325 107.852 46.8788 109.734 47.5358L120.992 51.4388L109.182 49.9821C107.206 49.7367 105.673 51.7 106.342 53.6079L110.365 65L104.117 54.7004C103.075 52.9746 100.608 52.9746 99.5658 54.7004L93.3183 65L97.3406 53.6079C98.0097 51.7 96.4771 49.7446 94.5009 49.9821L82.6907 51.4388L93.9485 47.5358C95.8313 46.8788 96.3837 44.4404 94.9599 43.0154L86.4796 34.5288L96.5004 41.0521C98.1731 42.1446 100.398 41.06 100.601 39.0413L101.845 27Z" fill="black"/>
</svg>
