<svg width="112" height="112" viewBox="0 0 112 112" fill="none" xmlns="http://www.w3.org/2000/svg">
<path d="M55.9516 110C85.8016 110 110 85.8018 110 55.9517C110 26.1017 85.8016 1.90344 55.9516 1.90344C26.1016 1.90344 1.90332 26.1017 1.90332 55.9517C1.90332 85.8018 26.1016 110 55.9516 110Z" fill="#FFED00" stroke="black" stroke-width="3" stroke-miterlimit="10"/>
<path d="M9.61621 53.4044C9.61621 53.4044 14.2917 55.1788 20.7198 52.1362" stroke="black" stroke-width="3" stroke-miterlimit="10" stroke-linecap="round"/>
<path d="M102.293 53.4044C102.293 53.4044 97.6176 55.1788 91.1895 52.1362" stroke="black" stroke-width="3" stroke-miterlimit="10" stroke-linecap="round"/>
<path d="M96.572 53.78C96.572 53.78 85.2943 93.497 55.9297 93.497C26.5651 93.497 15.2874 53.78 15.2874 53.78" stroke="black" stroke-width="3" stroke-miterlimit="10" stroke-linecap="round"/>
<path d="M46.9428 40.4674C46.9617 28.2298 44.9179 18.3061 42.3778 18.3021C39.8377 18.2982 37.7632 28.2156 37.7442 40.4532C37.7253 52.6908 39.7691 62.6145 42.3092 62.6184C44.8493 62.6224 46.9239 52.705 46.9428 40.4674Z" fill="black"/>
<path d="M74.1628 40.4676C74.1817 28.23 72.1379 18.3062 69.5977 18.3023C67.0576 18.2984 64.9831 28.2157 64.9642 40.4534C64.9453 52.691 66.9891 62.6147 69.5292 62.6186C72.0693 62.6226 74.1438 52.7052 74.1628 40.4676Z" fill="black"/>
</svg>
