<svg width="148" height="148" viewBox="0 0 148 148" fill="none" xmlns="http://www.w3.org/2000/svg">
<path d="M73.934 145.868C113.662 145.868 145.868 113.662 145.868 73.934C145.868 34.2059 113.662 2 73.934 2C34.2059 2 2 34.2059 2 73.934C2 113.662 34.2059 145.868 73.934 145.868Z" fill="#FFED00" stroke="black" stroke-width="3" stroke-miterlimit="10"/>
<path d="M98.5858 52.3537H87.6617L92.0806 58.4533H86.7272L80.4248 49.7459L86.7272 41.0385H92.0806L87.6617 47.1307H98.5858V52.3537Z" fill="black"/>
<path d="M65.1469 47.6089C66.5595 54.1721 63.5605 60.9888 58.1056 61.2133C52.6653 61.4379 48.797 54.9182 49.333 48.2971C49.7604 42.9799 52.9986 39.242 56.6423 39.0826C60.2861 38.916 64.0168 42.3424 65.1469 47.6089Z" fill="black"/>
<path d="M12.2649 73.1806C12.2649 73.1806 18.4876 75.5421 27.0429 71.4927" stroke="black" stroke-width="3" stroke-miterlimit="10" stroke-linecap="round"/>
<path d="M135.603 73.1806C135.603 73.1806 129.38 75.5421 120.825 71.4927" stroke="black" stroke-width="3" stroke-miterlimit="10" stroke-linecap="round"/>
<path d="M127.997 73.6804C127.997 73.6804 112.987 126.541 73.905 126.541C34.823 126.541 19.8132 73.6804 19.8132 73.6804" stroke="black" stroke-width="3" stroke-miterlimit="10" stroke-linecap="round"/>
</svg>
