<svg width="148" height="147" viewBox="0 0 148 147" fill="none" xmlns="http://www.w3.org/2000/svg">
<path d="M73.934 144.957C113.662 144.957 145.868 112.955 145.868 73.4787C145.868 34.0021 113.662 2 73.934 2C34.2059 2 2 34.0021 2 73.4787C2 112.955 34.2059 144.957 73.934 144.957Z" fill="#FFED00" stroke="black" stroke-width="3" stroke-miterlimit="10"/>
<path d="M16.8867 81.879C16.8867 81.879 23.5441 81.7711 29.9913 74.8895" stroke="black" stroke-width="3" stroke-miterlimit="10" stroke-linecap="round" stroke-linejoin="round"/>
<path d="M124.099 79.734C124.099 79.734 110.176 106.828 73.9337 106.828C37.6915 106.828 23.7683 79.734 23.7683 79.734" stroke="black" stroke-width="3" stroke-miterlimit="10" stroke-linecap="round" stroke-linejoin="round"/>
<path d="M50.9195 25.0488L52.0713 35.9974C52.2669 37.8257 54.3314 38.8191 55.8889 37.8257L65.2193 31.8944L57.3232 39.6109C56.0048 40.8994 56.5119 43.1236 58.265 43.7211L68.7472 47.2698L57.7506 45.9454C55.9106 45.7222 54.4836 47.5074 55.1065 49.2422L58.8518 59.6005L53.0347 50.2355C52.064 48.6663 49.7676 48.6663 48.7969 50.2355L42.9799 59.6005L46.7251 49.2422C47.3481 47.5074 45.921 45.7294 44.081 45.9454L33.0845 47.277L43.5667 43.7283C45.3198 43.1308 45.8341 40.9138 44.5084 39.6181L36.6124 31.9016L45.9428 37.8329C47.5002 38.8263 49.5721 37.8401 49.7604 36.0046L50.9195 25.0488Z" fill="black"/>
<path d="M100.911 25.0488L102.063 35.9974C102.259 37.8257 104.323 38.8191 105.881 37.8257L115.211 31.8944L107.315 39.6109C105.997 40.8994 106.504 43.1236 108.257 43.7211L118.739 47.2698L107.742 45.9454C105.902 45.7222 104.475 47.5074 105.098 49.2422L108.843 59.6005L103.026 50.2355C102.056 48.6663 99.7593 48.6663 98.7886 50.2355L92.9716 59.6005L96.7168 49.2422C97.3398 47.5074 95.9127 45.7294 94.0727 45.9454L83.0762 47.2698L93.5584 43.7211C95.3115 43.1236 95.8258 40.9066 94.5001 39.6109L86.6041 31.8944L95.9345 37.8257C97.4919 38.8191 99.5637 37.8329 99.7521 35.9974L100.911 25.0488Z" fill="black"/>
</svg>
